<mxfile host="app.diagrams.net" modified="2024-01-17T05:18:02.763Z" agent="Mozilla/5.0 (Windows NT 10.0; Win64; x64) AppleWebKit/537.36 (KHTML, like Gecko) Chrome/120.0.0.0 Safari/537.36" etag="CgN1wUHgINn2qOUuzPho" version="22.1.16" type="device">
  <diagram id="C5RBs43oDa-KdzZeNtuy" name="Page-1">
    <mxGraphModel dx="1434" dy="780" grid="1" gridSize="10" guides="1" tooltips="1" connect="1" arrows="1" fold="1" page="1" pageScale="1" pageWidth="827" pageHeight="1169" math="0" shadow="0">
      <root>
        <mxCell id="WIyWlLk6GJQsqaUBKTNV-0" />
        <mxCell id="WIyWlLk6GJQsqaUBKTNV-1" parent="WIyWlLk6GJQsqaUBKTNV-0" />
        <mxCell id="isKCy7eNC3lAGLIOYDkk-0" value="Cron Schedular" style="rounded=0;whiteSpace=wrap;html=1;" vertex="1" parent="WIyWlLk6GJQsqaUBKTNV-1">
          <mxGeometry x="310" y="40" width="150" height="50" as="geometry" />
        </mxCell>
        <mxCell id="isKCy7eNC3lAGLIOYDkk-1" value="" style="endArrow=classic;html=1;rounded=0;exitX=0.5;exitY=1;exitDx=0;exitDy=0;" edge="1" parent="WIyWlLk6GJQsqaUBKTNV-1" source="isKCy7eNC3lAGLIOYDkk-0">
          <mxGeometry width="50" height="50" relative="1" as="geometry">
            <mxPoint x="390" y="430" as="sourcePoint" />
            <mxPoint x="385" y="160" as="targetPoint" />
          </mxGeometry>
        </mxCell>
        <mxCell id="isKCy7eNC3lAGLIOYDkk-2" value="Weather.sh" style="swimlane;whiteSpace=wrap;html=1;" vertex="1" parent="WIyWlLk6GJQsqaUBKTNV-1">
          <mxGeometry x="40" y="160" width="680" height="640" as="geometry" />
        </mxCell>
        <mxCell id="isKCy7eNC3lAGLIOYDkk-3" value="Does the weather.csv&lt;br&gt;&amp;nbsp;data file exists?" style="rhombus;whiteSpace=wrap;html=1;" vertex="1" parent="isKCy7eNC3lAGLIOYDkk-2">
          <mxGeometry x="270" y="30" width="150" height="120" as="geometry" />
        </mxCell>
        <mxCell id="isKCy7eNC3lAGLIOYDkk-5" value="Run load weather_data.sql to load the data into the current_weather_load table" style="rounded=0;whiteSpace=wrap;html=1;" vertex="1" parent="isKCy7eNC3lAGLIOYDkk-2">
          <mxGeometry x="270" y="220" width="150" height="60" as="geometry" />
        </mxCell>
        <mxCell id="isKCy7eNC3lAGLIOYDkk-6" value="" style="endArrow=classic;html=1;rounded=0;exitX=0.5;exitY=1;exitDx=0;exitDy=0;entryX=0.5;entryY=0;entryDx=0;entryDy=0;" edge="1" parent="isKCy7eNC3lAGLIOYDkk-2" source="isKCy7eNC3lAGLIOYDkk-3" target="isKCy7eNC3lAGLIOYDkk-5">
          <mxGeometry width="50" height="50" relative="1" as="geometry">
            <mxPoint x="350" y="270" as="sourcePoint" />
            <mxPoint x="400" y="220" as="targetPoint" />
          </mxGeometry>
        </mxCell>
        <mxCell id="isKCy7eNC3lAGLIOYDkk-7" value="Yes" style="edgeLabel;html=1;align=center;verticalAlign=middle;resizable=0;points=[];" vertex="1" connectable="0" parent="isKCy7eNC3lAGLIOYDkk-6">
          <mxGeometry x="-0.0857" y="2" relative="1" as="geometry">
            <mxPoint as="offset" />
          </mxGeometry>
        </mxCell>
        <mxCell id="isKCy7eNC3lAGLIOYDkk-8" value="Any problems &lt;br&gt;loading the data?" style="rhombus;whiteSpace=wrap;html=1;" vertex="1" parent="isKCy7eNC3lAGLIOYDkk-2">
          <mxGeometry x="270" y="340" width="150" height="80" as="geometry" />
        </mxCell>
        <mxCell id="isKCy7eNC3lAGLIOYDkk-9" value="Run copy_weather.sql to copy the data to the current_weather table" style="rounded=0;whiteSpace=wrap;html=1;" vertex="1" parent="isKCy7eNC3lAGLIOYDkk-2">
          <mxGeometry x="40" y="440" width="120" height="70" as="geometry" />
        </mxCell>
        <mxCell id="isKCy7eNC3lAGLIOYDkk-10" value="Create a log file called load_weather.log with the description of the problem" style="rounded=0;whiteSpace=wrap;html=1;" vertex="1" parent="isKCy7eNC3lAGLIOYDkk-2">
          <mxGeometry x="520" y="440" width="120" height="70" as="geometry" />
        </mxCell>
        <mxCell id="isKCy7eNC3lAGLIOYDkk-11" value="" style="endArrow=classic;html=1;rounded=0;exitX=0.5;exitY=1;exitDx=0;exitDy=0;entryX=0.5;entryY=0;entryDx=0;entryDy=0;" edge="1" parent="isKCy7eNC3lAGLIOYDkk-2" source="isKCy7eNC3lAGLIOYDkk-5" target="isKCy7eNC3lAGLIOYDkk-8">
          <mxGeometry width="50" height="50" relative="1" as="geometry">
            <mxPoint x="350" y="270" as="sourcePoint" />
            <mxPoint x="400" y="220" as="targetPoint" />
          </mxGeometry>
        </mxCell>
        <mxCell id="isKCy7eNC3lAGLIOYDkk-17" value="" style="endArrow=classic;html=1;rounded=0;" edge="1" parent="isKCy7eNC3lAGLIOYDkk-2">
          <mxGeometry width="50" height="50" relative="1" as="geometry">
            <mxPoint x="344.5" y="560" as="sourcePoint" />
            <mxPoint x="344.5" y="620" as="targetPoint" />
          </mxGeometry>
        </mxCell>
        <mxCell id="isKCy7eNC3lAGLIOYDkk-13" value="" style="endArrow=none;html=1;rounded=0;exitX=0;exitY=0.5;exitDx=0;exitDy=0;" edge="1" parent="WIyWlLk6GJQsqaUBKTNV-1" source="isKCy7eNC3lAGLIOYDkk-8">
          <mxGeometry width="50" height="50" relative="1" as="geometry">
            <mxPoint x="390" y="430" as="sourcePoint" />
            <mxPoint x="120" y="540" as="targetPoint" />
          </mxGeometry>
        </mxCell>
        <mxCell id="isKCy7eNC3lAGLIOYDkk-28" value="Yes" style="edgeLabel;html=1;align=center;verticalAlign=middle;resizable=0;points=[];" vertex="1" connectable="0" parent="isKCy7eNC3lAGLIOYDkk-13">
          <mxGeometry x="0.1902" y="-3" relative="1" as="geometry">
            <mxPoint as="offset" />
          </mxGeometry>
        </mxCell>
        <mxCell id="isKCy7eNC3lAGLIOYDkk-14" value="" style="endArrow=classic;html=1;rounded=0;entryX=0.325;entryY=-0.033;entryDx=0;entryDy=0;entryPerimeter=0;" edge="1" parent="WIyWlLk6GJQsqaUBKTNV-1" target="isKCy7eNC3lAGLIOYDkk-9">
          <mxGeometry width="50" height="50" relative="1" as="geometry">
            <mxPoint x="120" y="540" as="sourcePoint" />
            <mxPoint x="440" y="380" as="targetPoint" />
          </mxGeometry>
        </mxCell>
        <mxCell id="isKCy7eNC3lAGLIOYDkk-15" value="" style="endArrow=none;html=1;rounded=0;exitX=1;exitY=0.5;exitDx=0;exitDy=0;" edge="1" parent="WIyWlLk6GJQsqaUBKTNV-1" source="isKCy7eNC3lAGLIOYDkk-8">
          <mxGeometry width="50" height="50" relative="1" as="geometry">
            <mxPoint x="390" y="430" as="sourcePoint" />
            <mxPoint x="640" y="540" as="targetPoint" />
          </mxGeometry>
        </mxCell>
        <mxCell id="isKCy7eNC3lAGLIOYDkk-27" value="No" style="edgeLabel;html=1;align=center;verticalAlign=middle;resizable=0;points=[];" vertex="1" connectable="0" parent="isKCy7eNC3lAGLIOYDkk-15">
          <mxGeometry x="0.2205" y="-3" relative="1" as="geometry">
            <mxPoint as="offset" />
          </mxGeometry>
        </mxCell>
        <mxCell id="isKCy7eNC3lAGLIOYDkk-16" value="" style="endArrow=classic;html=1;rounded=0;entryX=0.658;entryY=0.017;entryDx=0;entryDy=0;entryPerimeter=0;" edge="1" parent="WIyWlLk6GJQsqaUBKTNV-1" target="isKCy7eNC3lAGLIOYDkk-10">
          <mxGeometry width="50" height="50" relative="1" as="geometry">
            <mxPoint x="640" y="540" as="sourcePoint" />
            <mxPoint x="440" y="380" as="targetPoint" />
          </mxGeometry>
        </mxCell>
        <mxCell id="isKCy7eNC3lAGLIOYDkk-18" value="" style="endArrow=none;html=1;rounded=0;exitX=0.333;exitY=1;exitDx=0;exitDy=0;exitPerimeter=0;" edge="1" parent="WIyWlLk6GJQsqaUBKTNV-1" source="isKCy7eNC3lAGLIOYDkk-9">
          <mxGeometry width="50" height="50" relative="1" as="geometry">
            <mxPoint x="390" y="540" as="sourcePoint" />
            <mxPoint x="120" y="720" as="targetPoint" />
          </mxGeometry>
        </mxCell>
        <mxCell id="isKCy7eNC3lAGLIOYDkk-19" value="" style="endArrow=classic;html=1;rounded=0;" edge="1" parent="WIyWlLk6GJQsqaUBKTNV-1">
          <mxGeometry width="50" height="50" relative="1" as="geometry">
            <mxPoint x="120" y="720" as="sourcePoint" />
            <mxPoint x="390" y="720" as="targetPoint" />
          </mxGeometry>
        </mxCell>
        <mxCell id="isKCy7eNC3lAGLIOYDkk-20" value="" style="endArrow=none;html=1;rounded=0;exitX=0.667;exitY=1;exitDx=0;exitDy=0;exitPerimeter=0;" edge="1" parent="WIyWlLk6GJQsqaUBKTNV-1" source="isKCy7eNC3lAGLIOYDkk-10">
          <mxGeometry width="50" height="50" relative="1" as="geometry">
            <mxPoint x="390" y="540" as="sourcePoint" />
            <mxPoint x="640" y="720" as="targetPoint" />
          </mxGeometry>
        </mxCell>
        <mxCell id="isKCy7eNC3lAGLIOYDkk-21" value="" style="endArrow=classic;html=1;rounded=0;" edge="1" parent="WIyWlLk6GJQsqaUBKTNV-1">
          <mxGeometry width="50" height="50" relative="1" as="geometry">
            <mxPoint x="640" y="720" as="sourcePoint" />
            <mxPoint x="380" y="720" as="targetPoint" />
          </mxGeometry>
        </mxCell>
        <mxCell id="isKCy7eNC3lAGLIOYDkk-22" value="" style="endArrow=none;html=1;rounded=0;entryX=1;entryY=0.5;entryDx=0;entryDy=0;" edge="1" parent="WIyWlLk6GJQsqaUBKTNV-1" target="isKCy7eNC3lAGLIOYDkk-3">
          <mxGeometry width="50" height="50" relative="1" as="geometry">
            <mxPoint x="700" y="250" as="sourcePoint" />
            <mxPoint x="440" y="370" as="targetPoint" />
          </mxGeometry>
        </mxCell>
        <mxCell id="isKCy7eNC3lAGLIOYDkk-25" value="No" style="edgeLabel;html=1;align=center;verticalAlign=middle;resizable=0;points=[];" vertex="1" connectable="0" parent="isKCy7eNC3lAGLIOYDkk-22">
          <mxGeometry x="0.3167" relative="1" as="geometry">
            <mxPoint as="offset" />
          </mxGeometry>
        </mxCell>
        <mxCell id="isKCy7eNC3lAGLIOYDkk-23" value="" style="endArrow=none;html=1;rounded=0;" edge="1" parent="WIyWlLk6GJQsqaUBKTNV-1">
          <mxGeometry width="50" height="50" relative="1" as="geometry">
            <mxPoint x="700" y="740" as="sourcePoint" />
            <mxPoint x="700" y="250" as="targetPoint" />
          </mxGeometry>
        </mxCell>
        <mxCell id="isKCy7eNC3lAGLIOYDkk-24" value="" style="endArrow=classic;html=1;rounded=0;" edge="1" parent="WIyWlLk6GJQsqaUBKTNV-1">
          <mxGeometry width="50" height="50" relative="1" as="geometry">
            <mxPoint x="700" y="740" as="sourcePoint" />
            <mxPoint x="390" y="740" as="targetPoint" />
          </mxGeometry>
        </mxCell>
      </root>
    </mxGraphModel>
  </diagram>
</mxfile>
